<?xml version="1.0" standalone="no"?>
<!DOCTYPE svg PUBLIC "-//W3C//DTD SVG 20010904//EN"
 "http://www.w3.org/TR/2001/REC-SVG-20010904/DTD/svg10.dtd">
<svg version="1.0" xmlns="http://www.w3.org/2000/svg"
 width="300.000000pt" height="163.000000pt" viewBox="0 0 300.000000 163.000000"
 preserveAspectRatio="xMidYMid meet">

<g transform="translate(0.000000,163.000000) scale(0.100000,-0.100000)"
fill="#000000" stroke="none">
<path d="M2307 1576 c-61 -17 -102 -56 -126 -120 -21 -58 -71 -273 -70 -302 1
-17 16 31 33 109 8 35 22 27 30 -18 9 -44 23 -53 36 -20 5 14 22 30 37 36 48
18 153 -14 153 -47 0 -10 6 -14 18 -10 9 3 87 25 172 50 141 40 270 83 270 90
0 1 -13 3 -29 3 -23 0 -44 15 -102 75 -82 83 -182 140 -278 158 -67 12 -84 12
-144 -4z"/>
<path d="M1397 1550 c-83 -15 -297 -161 -422 -289 -53 -54 -65 -71 -50 -71 11
0 70 -2 130 -5 61 -3 214 -10 340 -16 238 -10 493 -32 579 -48 64 -12 74 -7
87 43 6 22 28 108 50 189 22 82 39 156 37 165 -2 13 -19 19 -73 24 -120 11
-628 18 -678 8z"/>
<path d="M904 1286 c-15 -12 -17 -19 -8 -32 15 -25 27 -27 49 -9 20 16 19 16
-2 10 -34 -9 -47 4 -27 26 20 23 15 25 -12 5z"/>
<path d="M2785 1224 c-103 -38 -123 -43 -151 -34 -39 13 -62 5 -70 -25 -4 -17
-19 -28 -47 -38 -561 -193 -577 -198 -599 -186 -13 7 -1 -11 27 -40 28 -28 51
-51 53 -51 5 0 -9 23 -26 43 -8 9 -13 19 -10 22 2 3 137 49 299 104 213 71
303 97 326 94 25 -4 37 0 56 21 15 15 71 43 148 72 68 26 128 51 134 56 19 17
-24 6 -140 -38z m-160 -69 c-16 -8 -37 -14 -45 -14 -8 0 -1 7 15 14 17 8 37
14 45 14 8 0 2 -7 -15 -14z"/>
<path d="M963 1139 c-72 -42 -67 -46 10 -8 71 36 76 39 56 39 -8 0 -38 -14
-66 -31z"/>
<path d="M1078 1163 c18 -2 45 -2 60 0 15 2 0 4 -33 4 -33 0 -45 -2 -27 -4z"/>
<path d="M1227 1153 c18 -2 50 -2 70 0 21 2 7 4 -32 4 -38 0 -55 -2 -38 -4z"/>
<path d="M2871 1134 c-26 -32 -44 -99 -37 -129 3 -12 -1 -53 -9 -91 -28 -131
-17 -203 36 -224 21 -9 34 -9 56 2 30 14 73 88 73 123 -1 12 -6 6 -14 -17 -20
-55 -45 -90 -63 -86 -25 5 -53 50 -58 93 l-5 40 11 -43 c10 -42 11 -43 32 -29
15 10 21 24 20 43 -2 24 -1 25 6 9 8 -19 8 -19 16 4 8 26 -14 49 -27 28 -6 -9
-10 -9 -17 2 -7 11 -9 11 -14 0 -3 -8 -3 2 0 21 6 32 5 34 -10 21 -11 -9 -17
-10 -17 -2 0 6 5 11 11 11 8 0 7 5 -1 15 -11 13 -10 14 4 9 11 -4 16 -1 16 10
0 9 -7 19 -16 23 -12 5 -13 7 -3 14 8 5 17 3 21 -4 5 -7 8 0 9 18 1 29 1 30 9
5 8 -25 8 -25 10 5 2 24 4 20 12 -20 11 -57 22 -76 24 -39 1 13 -3 24 -9 24
-8 0 -8 3 0 11 7 7 5 22 -9 50 -25 52 -57 51 -76 -1 l-12 -35 6 40 c6 47 33
96 54 103 9 3 7 -4 -7 -20 -13 -13 -23 -30 -23 -37 0 -8 9 -2 21 13 11 14 27
26 34 26 21 0 55 -50 54 -79 0 -25 -1 -25 -12 6 -7 18 -18 38 -26 45 -8 8 -5
-2 5 -22 28 -53 26 -217 -3 -282 -23 -49 -30 -55 -51 -38 -7 5 -6 2 2 -7 13
-14 17 -14 32 -2 31 26 47 83 55 203 6 99 5 127 -9 160 -8 23 -20 44 -26 48
-22 15 -55 7 -75 -18z"/>
<path d="M1375 1142 l30 -4 -35 -14 c-30 -12 -31 -13 -6 -9 16 4 43 12 60 20
31 13 31 13 -24 13 -34 -1 -43 -3 -25 -6z"/>
<path d="M2153 1140 c-13 -5 -23 -11 -23 -14 0 -5 72 13 79 20 8 7 -34 3 -56
-6z"/>
<path d="M2900 1086 c0 -2 7 -7 16 -10 8 -3 12 -2 9 4 -6 10 -25 14 -25 6z"/>
<path d="M465 1028 c-92 -51 -98 -58 -50 -58 28 0 58 12 112 46 40 25 73 47
73 50 0 16 -77 -5 -135 -38z"/>
<path d="M555 1015 l-79 -55 53 0 c47 0 60 5 127 51 41 28 74 53 74 55 0 2
-22 4 -48 4 -42 0 -58 -7 -127 -55z"/>
<path d="M1105 977 c-138 -51 -140 -52 -100 -59 76 -13 110 -7 255 47 143 53
144 54 94 55 -28 0 -64 2 -80 5 -19 2 -77 -14 -169 -48z"/>
<path d="M1643 925 c-128 -64 -206 -109 -240 -140 -37 -33 -60 -45 -84 -46
-19 -1 1 -5 43 -9 83 -8 122 -26 140 -65 20 -43 5 -56 -59 -53 l-58 3 -3 44
c-3 37 -6 42 -23 38 -10 -3 -19 -1 -19 4 0 5 -4 9 -10 9 -5 0 -10 -15 -10 -33
0 -35 -25 -67 -52 -67 -24 0 -48 34 -48 69 0 18 -4 30 -9 26 -5 -3 -12 -1 -16
5 -12 20 -21 9 -17 -20 6 -45 -21 -80 -62 -80 -18 0 -39 6 -45 14 -19 22 -25
84 -11 101 11 13 7 15 -27 15 -31 0 -45 -7 -70 -32 -31 -34 -53 -69 -53 -86 0
-14 73 -24 163 -23 47 1 88 -4 105 -12 21 -10 57 -12 152 -6 123 6 150 4 150
-11 0 -15 -49 -20 -250 -22 -197 -2 -200 -2 -75 -8 72 -3 182 -2 245 2 63 4
152 7 197 7 l81 1 -4 -42 -3 -43 11 43 c15 59 27 53 15 -8 -9 -47 -14 -53 -66
-84 -31 -19 -75 -43 -98 -55 -27 -13 -43 -28 -43 -40 0 -14 -19 -24 -87 -44
-113 -35 -199 -50 -240 -44 -21 4 -36 1 -44 -9 -10 -12 13 -14 162 -14 113 1
184 5 201 13 15 7 67 48 114 91 l86 79 -6 -39 c-4 -21 -2 -53 2 -69 10 -34 9
-36 -59 -82 -44 -30 -104 -91 -124 -127 -12 -20 -111 -35 -246 -35 -66 -1 -78
2 -90 20 -17 25 -54 33 -265 59 -282 34 -455 69 -662 132 -84 26 -107 29 -122
20 -16 -10 -22 -8 -35 10 -14 21 -22 88 -10 88 3 0 22 -11 43 -25 56 -37 102
-51 113 -34 15 24 10 35 -25 47 -19 7 -40 19 -47 28 -10 13 -8 13 16 4 19 -7
32 -7 38 -1 7 7 5 13 -7 17 -34 13 -75 135 -76 227 l0 38 -37 -30 c-21 -17
-49 -39 -61 -49 -22 -16 -23 -23 -17 -74 6 -47 11 -58 32 -67 l26 -12 -27 -27
c-19 -21 -26 -38 -26 -68 0 -48 25 -90 45 -74 9 7 16 6 25 -5 7 -8 23 -15 37
-15 13 0 40 -9 61 -19 158 -81 811 -196 1107 -196 77 0 155 4 174 8 32 7 33 6
29 -18 -3 -14 -4 -25 -1 -25 2 0 38 17 81 39 42 21 94 44 115 51 l39 12 -7 44
-6 44 38 -26 c52 -35 134 -31 187 9 66 51 126 186 126 286 0 166 -36 299 -92
346 -37 31 -70 32 -123 1 -52 -31 -88 -85 -120 -179 -13 -41 -24 -61 -24 -47
-1 33 40 131 75 181 31 46 98 89 137 89 15 0 42 -14 63 -32 37 -32 37 -33 19
-5 -25 38 -70 60 -109 53 -91 -17 -156 -105 -196 -263 l-11 -43 -84 0 c-85 0
-107 9 -82 34 8 8 19 36 26 63 12 46 49 158 66 196 5 12 -20 1 -76 -34 -46
-29 -91 -58 -100 -66 -8 -7 -26 -13 -40 -13 -53 1 57 76 263 179 112 55 198
101 192 101 -6 0 -96 -43 -201 -95z m325 -155 c50 -50 67 -116 67 -265 0 -112
-3 -138 -24 -188 -31 -79 -87 -137 -131 -137 -45 0 -104 62 -125 132 -18 61
-20 204 -4 280 38 175 138 257 217 178z m-472 -64 c19 -19 34 -42 34 -52 -1
-12 -6 -7 -15 14 -10 22 -28 39 -57 52 -33 15 -38 20 -19 20 13 0 37 -14 57
-34z"/>
<path d="M1927 748 c41 -48 63 -122 63 -213 0 -150 -45 -275 -110 -307 -31
-16 -32 -18 -11 -18 37 0 94 67 117 136 14 44 19 87 19 174 0 108 -2 119 -30
174 -16 33 -41 67 -55 75 -22 14 -22 12 7 -21z"/>
<path d="M1828 743 c-22 -25 -37 -57 -52 -108 -12 -38 -12 -45 1 -49 12 -5 14
-1 9 21 -5 24 -5 26 6 11 7 -9 18 -25 25 -35 11 -16 12 -15 12 12 0 17 -6 39
-14 49 -8 11 -15 24 -15 30 0 5 7 1 15 -10 13 -18 14 -16 15 28 0 37 4 48 20
53 28 9 57 -10 79 -53 11 -20 20 -33 21 -29 0 13 -21 50 -43 75 -25 26 -58 29
-79 5z"/>
<path d="M1843 664 c5 -62 11 -83 22 -73 9 9 -8 139 -18 139 -6 0 -8 -25 -4
-66z"/>
<path d="M1874 690 c4 -19 7 -55 7 -78 -1 -51 20 -55 30 -6 6 26 7 27 8 5 1
-20 4 -22 13 -13 10 10 10 17 0 32 -6 11 -12 27 -12 35 0 18 -16 20 -24 3 -3
-7 -4 -4 -1 8 3 13 -1 27 -11 35 -16 13 -16 11 -10 -21z"/>
<path d="M1758 555 c-6 -29 14 -50 38 -41 20 8 14 35 -12 53 -20 13 -22 12
-26 -12z"/>
<path d="M1910 561 c-7 -14 -6 -23 3 -33 15 -16 21 -48 9 -48 -19 0 -22 -33
-6 -51 10 -11 12 -19 6 -19 -7 0 -12 -16 -12 -37 1 -33 2 -36 12 -18 6 10 12
55 14 98 1 43 5 81 8 84 3 4 6 15 6 25 0 24 -27 23 -40 -1z"/>
<path d="M1831 541 c-23 -41 -4 -111 28 -111 24 0 34 32 25 78 -10 52 -35 67
-53 33z"/>
<path d="M1750 491 c0 -14 5 -19 15 -14 17 6 15 25 -3 31 -7 2 -12 -5 -12 -17z"/>
<path d="M1766 465 c-16 -12 -18 -22 -12 -67 20 -169 85 -217 154 -114 17 26
32 53 32 60 0 6 -14 -13 -30 -41 -20 -35 -39 -55 -56 -59 -35 -9 -44 4 -35 54
8 43 -2 59 -14 21 -4 -11 -9 -18 -12 -15 -3 3 4 20 16 39 21 35 28 77 12 77
-5 0 -14 -14 -21 -30 -15 -37 -34 -51 -20 -16 8 22 7 26 -8 26 -12 1 -9 5 11
16 18 10 27 23 27 39 0 28 -16 31 -44 10z"/>
<path d="M1881 383 c0 -21 4 -47 9 -58 6 -14 9 -4 9 38 1 32 -3 57 -9 57 -5 0
-10 -17 -9 -37z"/>
<path d="M1848 395 c-3 -6 -10 -39 -14 -74 -5 -47 -4 -62 5 -57 6 4 12 17 12
29 1 17 2 18 6 4 2 -9 9 -15 14 -12 12 8 12 45 0 45 -6 0 -11 17 -13 38 -2 20
-6 32 -10 27z"/>
<path d="M1315 959 c-71 -27 -137 -52 -145 -56 -8 -4 23 -10 70 -13 l85 -6
130 52 c72 29 123 55 115 57 -8 3 -40 8 -70 10 -48 5 -71 0 -185 -44z"/>
<path d="M2993 920 c0 -47 2 -66 4 -42 2 23 2 61 0 85 -2 23 -4 4 -4 -43z"/>
<path d="M2887 940 c-11 -41 15 -82 29 -45 8 19 -3 65 -15 65 -5 0 -11 -9 -14
-20z"/>
<path d="M2058 927 c-40 -15 -58 -27 -58 -39 0 -30 31 -37 80 -18 49 19 66 39
57 64 -8 20 -8 20 -79 -7z"/>
<path d="M458 903 c-39 -26 -48 -43 -25 -43 13 0 97 57 97 66 0 12 -40 0 -72
-23z"/>
<path d="M2930 893 c0 -13 5 -23 10 -23 13 0 13 11 0 30 -8 12 -10 11 -10 -7z"/>
<path d="M882 869 c-44 -32 -49 -51 -18 -57 20 -4 86 54 86 75 0 21 -23 15
-68 -18z"/>
<path d="M194 859 c-3 -5 -8 -39 -11 -74 -4 -55 -2 -64 10 -59 8 3 18 1 21 -4
3 -6 15 -8 26 -5 12 3 28 -1 38 -9 9 -9 31 -16 48 -16 l32 -1 -15 57 c-8 31
-22 65 -32 75 -22 23 -108 50 -117 36z"/>
<path d="M390 790 c-11 -11 -20 -28 -19 -37 0 -16 2 -15 10 2 7 15 8 12 5 -17
-3 -20 -1 -47 2 -60 5 -17 9 -10 13 32 l7 55 -2 -62 c0 -33 2 -59 7 -56 4 2 7
-1 7 -7 0 -6 5 -8 10 -5 6 3 10 2 10 -4 0 -6 7 -8 15 -5 8 4 15 1 15 -6 0 -8
9 -10 25 -6 15 4 25 2 25 -4 0 -6 12 -10 28 -8 27 3 27 4 30 86 2 49 -2 89 -8
97 -12 14 -147 9 -167 -7 -9 -7 -13 -7 -13 0 0 6 12 15 28 20 17 7 21 11 10
11 -10 1 -27 -8 -38 -19z m175 -11 c11 -16 1 -19 -13 -3 -7 8 -8 14 -3 14 5 0
13 -5 16 -11z m-135 -61 c-4 -49 -5 -50 -8 -14 -3 34 2 66 10 66 2 0 1 -24 -2
-52z m20 2 c-6 -37 -8 -40 -9 -13 -1 29 8 68 14 61 1 -2 -1 -23 -5 -48z m27
-47 c-2 -21 -4 -6 -4 32 0 39 2 55 4 38 2 -18 2 -50 0 -70z m23 35 l-5 -63 -3
49 c-3 43 2 76 10 76 2 0 1 -28 -2 -62z m29 -15 c-1 -60 -2 -64 -10 -33 -7 31
-3 100 7 100 2 0 4 -30 3 -67z m18 -35 c-2 -18 -4 -4 -4 32 0 36 2 50 4 33 2
-18 2 -48 0 -65z m23 -38 c0 -5 -5 -10 -11 -10 -5 0 -7 5 -4 10 3 6 8 10 11
10 2 0 4 -4 4 -10z"/>
<path d="M2679 773 c-13 -16 -12 -17 4 -4 16 13 21 21 13 21 -2 0 -10 -8 -17
-17z"/>
<path d="M616 764 c-20 -19 -24 -150 -4 -138 8 5 9 2 5 -9 -3 -9 -1 -19 5 -23
7 -5 8 -2 4 7 -5 8 -2 8 6 -2 7 -9 20 -18 28 -22 13 -5 13 -6 0 -6 -26 -1
-197 28 -227 40 -15 5 -23 6 -18 1 15 -15 103 -40 175 -52 78 -12 238 -12 200
0 -14 4 -19 8 -12 9 8 1 21 9 30 19 10 10 15 13 12 7 -3 -6 3 -2 13 9 11 12
17 30 14 43 -2 12 0 20 4 17 5 -3 9 11 9 30 0 47 -26 63 -121 76 -99 13 -105
12 -123 -6z m19 -85 c0 -47 -2 -54 -8 -34 -7 21 -2 95 6 95 1 0 2 -27 2 -61z
m54 -11 c-1 -64 -2 -68 -9 -33 -7 36 -3 105 6 105 2 0 3 -33 3 -72z m21 7 c-7
-59 -7 -59 -9 -13 -1 40 7 85 14 76 1 -2 -2 -30 -5 -63z m30 -2 l-5 -68 -3 54
c-3 47 1 81 10 81 2 0 1 -30 -2 -67z m-83 -25 c-2 -18 -4 -6 -4 27 0 33 2 48
4 33 2 -15 2 -42 0 -60z m110 -15 c-2 -21 -4 -6 -4 32 0 39 2 55 4 38 2 -18 2
-50 0 -70z m23 42 c-7 -45 -7 -46 -9 -13 -1 32 8 74 14 66 1 -2 -1 -25 -5 -53z
m27 -32 c-2 -16 -4 -3 -4 27 0 30 2 43 4 28 2 -16 2 -40 0 -55z"/>
<path d="M1076 703 c-7 -17 15 -70 27 -65 4 1 19 2 33 2 23 0 25 3 22 36 -3
34 -5 37 -40 40 -26 2 -38 -2 -42 -13z"/>
<path d="M2450 620 c-113 -55 -227 -107 -255 -115 -36 -11 -56 -24 -72 -48
-21 -30 -32 -97 -17 -97 17 0 322 152 515 256 75 41 141 74 147 74 21 0 13 17
-10 24 -66 17 -102 6 -308 -94z m180 39 c-32 -26 -389 -203 -396 -196 -4 4
400 214 416 216 3 0 -6 -9 -20 -20z"/>
<path d="M185 700 c9 -14 64 -42 76 -38 6 2 -11 14 -36 26 -26 12 -44 18 -40
12z"/>
<path d="M1244 686 c-7 -30 1 -46 25 -46 26 0 44 25 36 50 -9 30 -53 27 -61
-4z"/>
<path d="M1404 696 c-3 -8 -4 -27 -2 -43 3 -26 7 -28 43 -28 34 0 40 3 43 22
2 16 -6 28 -30 43 -39 24 -47 25 -54 6z"/>
<path d="M190 591 c19 -11 57 -27 85 -36 58 -18 290 -60 448 -81 138 -19 659
-30 737 -16 42 8 19 9 -100 5 -373 -12 -908 44 -1110 115 -92 33 -96 34 -60
13z"/>
<path d="M150 508 c0 -7 9 -26 20 -43 19 -28 20 -29 20 -7 0 28 -17 62 -30 62
-6 0 -10 -6 -10 -12z"/>
<path d="M200 478 c0 -25 18 -68 30 -68 17 0 11 36 -10 61 -16 19 -19 21 -20
7z"/>
<path d="M320 448 c0 -34 51 -117 85 -138 54 -33 389 -99 429 -84 22 8 58 88
54 121 -3 27 -5 28 -78 35 -80 8 -403 63 -457 78 -29 7 -33 6 -33 -12z"/>
<path d="M250 457 c0 -19 52 -108 82 -137 63 -63 215 -115 398 -136 65 -7 122
12 141 47 11 22 10 22 -20 -4 -40 -33 -75 -34 -233 -7 -200 34 -277 77 -338
190 -16 30 -30 51 -30 47z"/>
<path d="M280 456 c0 -8 42 -76 46 -76 3 0 -5 18 -16 40 -18 35 -30 49 -30 36z"/>
<path d="M1072 339 c-45 -17 -36 -60 17 -80 29 -12 76 4 86 29 13 34 -57 69
-103 51z"/>
<path d="M1202 328 c-31 -31 -1 -68 55 -68 33 0 53 16 53 42 0 33 -81 53 -108
26z"/>
<path d="M340 265 c13 -14 47 -34 75 -44 139 -52 441 -86 546 -61 88 21 92 32
9 24 -41 -4 -131 -7 -200 -7 -179 0 -377 46 -419 96 -7 10 -18 17 -24 17 -6 0
0 -11 13 -25z"/>
<path d="M1525 203 c-55 -24 -74 -27 -218 -31 -145 -3 -158 -5 -168 -24 -6
-11 -8 -22 -5 -26 15 -14 165 -13 236 2 71 15 172 57 215 90 30 23 8 19 -60
-11z"/>
<path d="M1323 3 c15 -2 39 -2 55 0 15 2 2 4 -28 4 -30 0 -43 -2 -27 -4z"/>
</g>
</svg>
